# xmcd
#
# Track frame offsets: 
#        150
#        29756
#        49975
#        78702
#        102117
#        126117
#        151842
#        176587
#
# Disc length: 2608 seconds
#
# Revision: 0
# Processed by: cddbd v1.5.2PL0 Copyright (c) Steve Scherf et al.
# Submitted via: ExactAudioCopy v0.95a4
#
DISCID=650a2e08
DTITLE=Barrelhouse - Hard to cover
DYEAR=1900
DGENRE=blues
TTITLE0=Every night is saturday night
TTITLE1=Ain't good for nothing
TTITLE2=Memories
TTITLE3=You don't have to go
TTITLE4=Blue river rising
TTITLE5=One more lonely night
TTITLE6=Don't hold your breath
TTITLE7=Tennessee flat top box
EXTD=
EXTT0=
EXTT1=
EXTT2=
EXTT3=
EXTT4=
EXTT5=
EXTT6=
EXTT7=
PLAYORDER=
